<?xml version="1.0" standalone="no"?>
<!DOCTYPE svg PUBLIC "-//W3C//DTD SVG 20010904//EN"
 "http://www.w3.org/TR/2001/REC-SVG-20010904/DTD/svg10.dtd">
<svg version="1.0" xmlns="http://www.w3.org/2000/svg"
 width="512.000000pt" height="512.000000pt" viewBox="0 0 512.000000 512.000000"
 preserveAspectRatio="xMidYMid meet">
<metadata>
Created by potrace 1.16, written by Peter Selinger 2001-2019
</metadata>
<g transform="translate(0.000000,512.000000) scale(0.100000,-0.100000)"
fill="#000000" stroke="none">
<path d="M2954 4431 c-11 -10 -26 -32 -32 -47 -6 -16 -248 -830 -537 -1809
-352 -1190 -523 -1785 -517 -1794 18 -30 60 -52 160 -81 110 -32 134 -32 156
3 8 12 253 833 546 1825 521 1766 532 1804 514 1823 -10 12 -27 25 -37 30 -18
10 -211 69 -225 69 -4 0 -17 -8 -28 -19z"/>
<path d="M734 3248 c-371 -370 -674 -680 -674 -688 0 -15 1310 -1333 1343
-1351 16 -9 41 12 174 143 85 84 159 161 165 172 9 16 -53 81 -471 500 l-481
481 0 55 0 55 471 470 c258 259 475 478 480 488 9 16 -12 41 -143 174 -84 85
-161 159 -172 165 -16 9 -104 -75 -692 -664z"/>
<path d="M3543 3768 c-85 -84 -159 -161 -165 -172 -9 -16 53 -81 471 -500
l481 -481 0 -55 0 -55 -481 -481 c-418 -419 -480 -484 -471 -500 6 -11 80 -88
165 -172 133 -131 158 -152 174 -143 33 18 1343 1336 1343 1351 0 15 -1310
1333 -1343 1351 -16 9 -41 -12 -174 -143z"/>
</g>
</svg>
