<?xml version="1.0" standalone="no"?>
<!DOCTYPE svg PUBLIC "-//W3C//DTD SVG 20010904//EN"
        "http://www.w3.org/TR/2001/REC-SVG-20010904/DTD/svg10.dtd">
<svg version="1.0" xmlns="http://www.w3.org/2000/svg"
     width="512.000000pt" height="512.000000pt" viewBox="0 0 512.000000 512.000000"
     preserveAspectRatio="xMidYMid meet">

    <g transform="translate(0.000000,512.000000) scale(0.100000,-0.100000)"
       fill="#fff" stroke="none">
        <path d="M1365 4774 c-66 -35 -124 -65 -129 -67 -6 -2 99 -212 232 -468 l241
-464 -709 -3 -710 -2 0 -475 0 -475 -145 0 -145 0 0 -800 0 -800 145 0 145 0
2 -472 3 -473 2265 0 2265 0 3 473 2 472 145 0 145 0 0 800 0 800 -145 0 -145
0 0 475 0 475 -711 0 c-391 0 -709 4 -707 8 2 4 110 214 242 466 131 251 237
458 235 460 -24 18 -264 135 -266 129 -2 -4 -127 -244 -278 -533 l-274 -525
-511 0 -511 0 -277 532 c-152 293 -279 532 -282 532 -3 -1 -59 -30 -125 -65z
m3155 -2754 l0 -1450 -1960 0 -1960 0 0 1450 0 1450 1960 0 1960 0 0 -1450z"/>
        <path d="M1490 3054 c-215 -58 -360 -284 -322 -504 41 -242 275 -413 509 -373
355 61 504 483 263 745 -115 126 -286 176 -450 132z m190 -303 c42 -22 80 -83
80 -130 0 -73 -77 -151 -150 -151 -45 0 -105 38 -129 81 -72 128 69 270 199
200z"/>
        <path d="M3390 3054 c-215 -58 -360 -284 -322 -504 41 -242 275 -413 509 -373
355 61 504 483 263 745 -115 126 -286 176 -450 132z m190 -303 c42 -22 80 -83
80 -130 0 -73 -77 -151 -150 -151 -45 0 -105 38 -129 81 -72 128 69 270 199
200z"/>
        <path d="M1460 1420 l0 -450 1100 0 1100 0 0 450 0 450 -1100 0 -1100 0 0
-450z m1900 0 l0 -150 -800 0 -800 0 0 150 0 150 800 0 800 0 0 -150z"/>
    </g>
</svg>
